<svg width="96" height="132" viewBox="0 0 96 132" fill="none" xmlns="http://www.w3.org/2000/svg">
<path d="M0.0522461 105.749L16.1844 2.52083C16.3816 1.25483 17.3662 0.256826 18.6294 0.0422264C19.8926 -0.172374 21.1514 0.445027 21.7554 1.57493L38.4389 32.6922L45.089 20.0307C45.604 19.0517 46.6192 18.4387 47.7255 18.4387C48.8318 18.4387 49.8471 19.0517 50.3622 20.0307L95.3848 105.749H0.0522461V105.749Z" fill="#FFA000"/>
<path d="M55.7848 65.5377L38.4312 32.6775L0.0522461 105.749L55.7848 65.5377Z" fill="#F57C00"/>
<path d="M95.3855 105.749L83.0294 29.2886C82.8427 28.1906 82.0591 27.2886 80.9979 26.9486C79.9367 26.6086 78.7753 26.8916 77.9872 27.6788L0.0522461 105.748L43.1756 129.931C45.8836 131.443 49.1816 131.443 51.8896 129.931L95.3855 105.748V105.749Z" fill="#FFCA28"/>
</svg>
