<svg viewBox="136.114 95.827 243.36 293.572" xmlns="http://www.w3.org/2000/svg">
  <defs></defs>
  <path d="M 282.804 110.917 L 364.474 110.827 L 227.454 247.777 L 191.744 283.287 L 151.114 242.607 L 282.804 110.917 Z M 282.044 233.197 C 283.104 231.797 285.054 232.487 286.534 232.307 L 364.404 232.327 L 293.434 303.227 L 252.594 262.637 L 282.044 233.197 Z" fill="#44d1fd"></path>
  <path fill="#1fbcfd" d="M 211.884 303.297 L 252.594 262.637 L 293.434 303.227 L 293.604 303.407 L 252.604 344.027 L 211.884 303.297 Z"></path>
  <path fill="#08589c" d="M 252.604 344.027 L 293.604 303.407 L 364.434 374.307 C 337.754 374.367 311.084 374.287 284.414 374.347 C 282.894 374.687 281.954 373.297 280.984 372.437 L 252.604 344.027 Z"></path>
</svg>