<?xml version="1.0" encoding="utf-8"?>
<svg viewBox="189.409 114.011 117.674 105.312" xmlns="http://www.w3.org/2000/svg">
  <path class="st0" d="M 256.583 125.723 C 253.783 121.123 247.883 119.623 243.283 122.423 C 241.883 123.223 240.783 124.323 239.983 125.723 L 226.283 149.123 C 247.483 159.723 261.483 180.723 263.083 204.423 L 253.483 204.423 C 251.883 184.123 239.683 166.223 221.383 157.323 L 208.783 179.123 C 219.083 183.723 226.283 193.223 227.883 204.323 L 205.883 204.323 C 204.983 204.223 204.383 203.523 204.383 202.623 C 204.383 202.423 204.483 202.223 204.583 202.023 L 210.683 191.623 C 208.583 189.923 206.283 188.523 203.683 187.723 L 197.683 198.123 C 195.083 202.623 196.583 208.423 201.083 211.023 C 201.083 211.023 201.183 211.023 201.183 211.123 C 202.583 211.923 204.183 212.323 205.883 212.323 L 235.983 212.323 C 237.083 198.223 230.783 184.623 219.383 176.423 L 224.183 168.123 C 238.583 178.023 246.783 194.823 245.583 212.323 L 271.083 212.323 C 272.283 185.823 259.283 160.723 237.083 146.323 L 246.783 129.723 C 247.183 128.923 248.183 128.723 248.983 129.123 C 250.083 129.723 291.083 201.223 291.883 202.123 C 292.283 202.923 292.083 203.823 291.283 204.223 C 291.083 204.323 290.783 204.423 290.483 204.423 L 280.583 204.423 C 280.683 207.023 280.683 209.723 280.583 212.323 L 290.483 212.323 C 295.783 212.323 300.083 208.123 300.083 202.823 C 300.083 202.823 300.083 202.723 300.083 202.723 C 300.083 201.023 299.683 199.423 298.783 198.023 L 256.583 125.723 Z" style="fill: rgb(255, 255, 255);"/>
</svg>