<svg width="514" height="598" viewBox="0 0 514 598" fill="none" xmlns="http://www.w3.org/2000/svg">
<path d="M179.547 545.729C116.129 535.616 65.1382 488.082 52.8091 427.582C45.9953 394.146 51.7535 357.882 68.1664 330.864L71.7942 324.892L67.5229 314.984C43.242 258.664 58.4171 193.107 104.415 155.608C115.081 146.913 237.186 69.3816 249.563 63.4457C270.958 53.1849 290.724 49.2433 316.397 50.1181C334.924 50.7494 343.632 52.2648 360.045 57.7146C411.664 74.8538 450.674 117.963 461.169 169.462C467.983 202.898 462.225 239.162 445.812 266.181L442.184 272.153L446.456 282.06C470.736 338.38 455.561 403.937 409.563 441.436C398.898 450.132 276.792 527.663 264.415 533.599C252.36 539.38 239.149 543.466 225.195 545.73C213.69 547.596 191.252 547.595 179.547 545.729V545.729ZM219.654 489.277C228.116 487.413 237.884 483.601 244.091 479.739C279.81 457.516 367.665 400.852 371.683 397.446C383.81 387.166 393.414 372.203 397.728 356.869C401.128 344.78 401.124 325.365 397.717 313.374C383.88 264.665 334.053 235.763 285.362 248.203C274.494 250.98 266.648 255.133 239.582 272.435C226.507 280.794 214.23 288.292 212.299 289.099C208.139 290.837 198.41 291.024 194.203 289.446C176.532 282.818 170.354 261.236 182.558 248.767C187.936 243.272 304.597 168.872 310.307 167.296C319.345 164.8 330.66 168.309 337.052 175.589C341.934 181.15 343.779 186.108 343.747 193.579L343.718 200.025L348.622 201.331C360.929 204.609 382.68 215.577 393.973 224.2C396.693 226.276 399.257 227.975 399.672 227.975C400.96 227.975 404.927 213.025 406.072 203.854C409.479 176.559 397.009 146.723 374.139 127.447C347.845 105.285 311.835 99.4465 280.072 112.195C273.495 114.834 279.873 110.905 206.068 157.785C150.277 193.223 146.077 196.104 137.081 205.117C126.223 215.996 120.329 225.933 116.252 240.235C112.838 252.214 112.842 271.634 116.261 283.67C130.099 332.379 179.925 361.281 228.617 348.841C239.441 346.076 247.248 341.945 274.493 324.57C287.621 316.197 299.899 308.701 301.776 307.913C305.847 306.202 315.599 306.032 319.776 307.599C337.446 314.227 343.624 335.808 331.42 348.278C326.042 353.772 209.382 428.172 203.671 429.749C194.634 432.244 183.319 428.735 176.927 421.455C172.044 415.895 170.199 410.936 170.232 403.465L170.26 397.019L165.356 395.713C153.05 392.435 131.299 381.467 120.006 372.845C117.287 370.768 114.722 369.069 114.307 369.069C113.019 369.069 109.052 384.019 107.907 393.19C103.642 427.368 124.035 463.998 156.74 480.902C176.926 491.336 197.732 494.106 219.655 489.277H219.654Z" fill="#FF2A2A"/>
</svg>
