<svg width="46" height="46" viewBox="0 0 46 46" fill="none" xmlns="http://www.w3.org/2000/svg">
<path fill-rule="evenodd" clip-rule="evenodd" d="M22.9755 15.192C18.5718 15.192 15 18.7639 15 23.1675C15 26.6905 17.2997 29.6752 20.4312 30.7516C20.8226 30.8006 20.9694 30.5559 20.9694 30.3602V28.9902C18.7676 29.4795 18.2783 27.9137 18.2783 27.9137C17.9358 26.9841 17.3976 26.7394 17.3976 26.7394C16.6636 26.2501 17.4465 26.2501 17.4465 26.2501C18.2294 26.299 18.6697 27.0819 18.6697 27.0819C19.4037 28.3052 20.5291 27.9626 20.9694 27.7669C21.0184 27.2287 21.263 26.8862 21.4587 26.6905C19.6973 26.4948 17.8379 25.8097 17.8379 22.7272C17.8379 21.8464 18.1315 21.1614 18.6697 20.5743L18.6669 20.5657L18.6669 20.5657C18.6105 20.3975 18.3351 19.5763 18.7676 18.5192C18.7676 18.5192 19.4526 18.3235 20.9694 19.351C21.6055 19.1553 22.2905 19.1064 22.9755 19.1064C23.6605 19.1064 24.3456 19.2042 24.9816 19.351C26.4985 18.3235 27.1835 18.5192 27.1835 18.5192C27.5892 19.5111 27.3719 20.2953 27.297 20.5655L27.297 20.5655L27.2969 20.5659C27.2905 20.5887 27.2852 20.6079 27.2814 20.6232C27.7706 21.1614 28.1132 21.8954 28.1132 22.7761C28.1132 25.8587 26.2538 26.4948 24.4924 26.6905C24.7859 26.9351 25.0306 27.4244 25.0306 28.1584V30.3602C25.0306 30.5559 25.1774 30.8006 25.5688 30.7516C28.7492 29.6752 31 26.6905 31 23.1675C30.951 18.7639 27.3792 15.192 22.9755 15.192Z" fill="white"/>
</svg>
